<svg width="81" height="70" viewBox="0 0 81 70" fill="none" xmlns="http://www.w3.org/2000/svg">
<path d="M40.5 7.5C23.9219 7.5 10.25 19.9062 8.25 35.9375C9.71875 35.3438 11.3125 35 13 35C17.1406 35 20.5 38.3594 20.5 42.5V62.5C20.5 66.6406 17.1406 70 13 70C6.09375 70 0.5 64.4062 0.5 57.5V55V47.5V40C0.5 17.9062 18.4062 0 40.5 0C62.5938 0 80.5 17.9062 80.5 40V47.5V55V57.5C80.5 64.4062 74.9062 70 68 70C63.8594 70 60.5 66.6406 60.5 62.5V42.5C60.5 38.3594 63.8594 35 68 35C69.6875 35 71.2812 35.3281 72.75 35.9375C70.75 19.9062 57.0781 7.5 40.5 7.5Z" fill="#626262"/>
</svg>
