<svg width="77" height="63" viewBox="0 0 77 63" fill="none" xmlns="http://www.w3.org/2000/svg">
<path d="M57.75 5.90625C57.75 2.64551 55.1633 0 51.975 0H40.425C37.2367 0 34.65 2.64551 34.65 5.90625V11.8125H26.95V2.95312C26.95 1.3166 25.6627 0 24.0625 0C22.4623 0 21.175 1.3166 21.175 2.95312V11.8125H13.475V2.95312C13.475 1.3166 12.1877 0 10.5875 0C8.98734 0 7.7 1.3166 7.7 2.95312V11.8125H5.775C2.58672 11.8125 0 14.458 0 17.7187V29.5312V57.0937C0 60.3545 2.58672 63 5.775 63H36.575H40.425H51.975H71.225C74.4133 63 77 60.3545 77 57.0937V29.5312C77 26.2705 74.4133 23.625 71.225 23.625H57.75V5.90625ZM69.3 45.2812V49.2187C69.3 50.3016 68.4338 51.1875 67.375 51.1875H63.525C62.4663 51.1875 61.6 50.3016 61.6 49.2187V45.2812C61.6 44.1984 62.4663 43.3125 63.525 43.3125H67.375C68.4338 43.3125 69.3 44.1984 69.3 45.2812ZM28.875 51.1875H25.025C23.9662 51.1875 23.1 50.3016 23.1 49.2187V45.2812C23.1 44.1984 23.9662 43.3125 25.025 43.3125H28.875C29.9338 43.3125 30.8 44.1984 30.8 45.2812V49.2187C30.8 50.3016 29.9338 51.1875 28.875 51.1875ZM15.4 49.2187C15.4 50.3016 14.5338 51.1875 13.475 51.1875H9.625C8.56625 51.1875 7.7 50.3016 7.7 49.2187V45.2812C7.7 44.1984 8.56625 43.3125 9.625 43.3125H13.475C14.5338 43.3125 15.4 44.1984 15.4 45.2812V49.2187ZM67.375 31.5C68.4338 31.5 69.3 32.3859 69.3 33.4687V37.4062C69.3 38.4891 68.4338 39.375 67.375 39.375H63.525C62.4663 39.375 61.6 38.4891 61.6 37.4062V33.4687C61.6 32.3859 62.4663 31.5 63.525 31.5H67.375ZM30.8 21.6562V25.5937C30.8 26.6766 29.9338 27.5625 28.875 27.5625H25.025C23.9662 27.5625 23.1 26.6766 23.1 25.5937V21.6562C23.1 20.5734 23.9662 19.6875 25.025 19.6875H28.875C29.9338 19.6875 30.8 20.5734 30.8 21.6562ZM13.475 19.6875C14.5338 19.6875 15.4 20.5734 15.4 21.6562V25.5937C15.4 26.6766 14.5338 27.5625 13.475 27.5625H9.625C8.56625 27.5625 7.7 26.6766 7.7 25.5937V21.6562C7.7 20.5734 8.56625 19.6875 9.625 19.6875H13.475ZM30.8 37.4062C30.8 38.4891 29.9338 39.375 28.875 39.375H25.025C23.9662 39.375 23.1 38.4891 23.1 37.4062V33.4687C23.1 32.3859 23.9662 31.5 25.025 31.5H28.875C29.9338 31.5 30.8 32.3859 30.8 33.4687V37.4062ZM13.475 39.375H9.625C8.56625 39.375 7.7 38.4891 7.7 37.4062V33.4687C7.7 32.3859 8.56625 31.5 9.625 31.5H13.475C14.5338 31.5 15.4 32.3859 15.4 33.4687V37.4062C15.4 38.4891 14.5338 39.375 13.475 39.375ZM50.05 33.4687V37.4062C50.05 38.4891 49.1838 39.375 48.125 39.375H44.275C43.2162 39.375 42.35 38.4891 42.35 37.4062V33.4687C42.35 32.3859 43.2162 31.5 44.275 31.5H48.125C49.1838 31.5 50.05 32.3859 50.05 33.4687ZM48.125 7.875C49.1838 7.875 50.05 8.76094 50.05 9.84375V13.7812C50.05 14.8641 49.1838 15.75 48.125 15.75H44.275C43.2162 15.75 42.35 14.8641 42.35 13.7812V9.84375C42.35 8.76094 43.2162 7.875 44.275 7.875H48.125ZM50.05 21.6562V25.5937C50.05 26.6766 49.1838 27.5625 48.125 27.5625H44.275C43.2162 27.5625 42.35 26.6766 42.35 25.5937V21.6562C42.35 20.5734 43.2162 19.6875 44.275 19.6875H48.125C49.1838 19.6875 50.05 20.5734 50.05 21.6562Z" fill="#626262"/>
</svg>
