<svg width="51" height="38" viewBox="0 0 51 38" fill="none" xmlns="http://www.w3.org/2000/svg">
<path d="M4.93492 0C2.31718 0 0.193359 2.10656 0.193359 4.70301C0.193359 6.1825 0.894715 7.57381 2.08998 8.46542L23.5851 24.4557C24.7112 25.2885 26.2522 25.2885 27.3783 24.4557L48.8734 8.46542C50.0686 7.57381 50.77 6.1825 50.77 4.70301C50.77 2.10656 48.6462 0 46.0284 0H4.93492ZM0.193359 10.9737V31.3534C0.193359 34.8121 3.02842 37.6241 6.51544 37.6241H44.4479C47.9349 37.6241 50.77 34.8121 50.77 31.3534V10.9737L29.2749 26.9639C27.0227 28.6394 23.9407 28.6394 21.6884 26.9639L0.193359 10.9737Z" fill="#00677D"/>
</svg>
