<svg width="77" height="69" viewBox="0 0 77 69" fill="none" xmlns="http://www.w3.org/2000/svg">
<path d="M0 8.625C0 3.86777 3.83663 0 8.55556 0H29.9444V17.25C29.9444 19.6354 31.8561 21.5625 34.2222 21.5625H51.3333V26.7645C41.4543 29.5811 34.2222 38.7316 34.2222 49.5938C34.2222 57.5584 38.1123 64.5932 44.0745 68.9057C43.6467 68.973 43.2189 69 42.7778 69H8.55556C3.83663 69 0 65.1322 0 60.375V8.625ZM51.3333 17.25H34.2222V0L51.3333 17.25ZM38.5 49.5938C38.5 44.4469 40.5281 39.5108 44.1382 35.8715C47.7483 32.2321 52.6446 30.1875 57.75 30.1875C62.8554 30.1875 67.7517 32.2321 71.3618 35.8715C74.9719 39.5108 77 44.4469 77 49.5938C77 54.7406 74.9719 59.6767 71.3618 63.316C67.7517 66.9554 62.8554 69 57.75 69C52.6446 69 47.7483 66.9554 44.1382 63.316C40.5281 59.6767 38.5 54.7406 38.5 49.5938ZM66.7467 43.7584C65.9179 42.9229 64.5543 42.9229 63.7255 43.7584L55.6111 51.9387L51.7745 48.0709C50.9457 47.2354 49.5821 47.2354 48.7533 48.0709C47.9245 48.9064 47.9245 50.2811 48.7533 51.1166L54.1005 56.5072C54.9293 57.3428 56.2929 57.3428 57.1217 56.5072L66.7467 46.8041C67.5755 45.9686 67.5755 44.5939 66.7467 43.7584Z" fill="#626262"/>
</svg>
