<svg width="31" height="31" viewBox="0 0 31 31" fill="#000000" xmlns="http://www.w3.org/2000/svg">
<path d="M15.5 31C19.6109 31 23.5533 29.367 26.4602 26.4602C29.367 23.5533 31 19.6109 31 15.5C31 11.3891 29.367 7.44666 26.4602 4.53984C23.5533 1.63303 19.6109 0 15.5 0C11.3891 0 7.44666 1.63303 4.53984 4.53984C1.63303 7.44666 0 11.3891 0 15.5C0 19.6109 1.63303 23.5533 4.53984 26.4602C7.44666 29.367 11.3891 31 15.5 31ZM22.3418 12.6543L14.5918 20.4043C14.0227 20.9734 13.1023 20.9734 12.5393 20.4043L8.66426 16.5293C8.09512 15.9602 8.09512 15.0398 8.66426 14.4768C9.2334 13.9137 10.1537 13.9076 10.7168 14.4768L13.5625 17.3225L20.2832 10.5957C20.8523 10.0266 21.7727 10.0266 22.3357 10.5957C22.8988 11.1648 22.9049 12.0852 22.3357 12.6482L22.3418 12.6543Z" fill="black"/>
</svg>
