<svg width="38" height="38" viewBox="0 0 38 38" fill="none" xmlns="http://www.w3.org/2000/svg">
<path d="M18.8162 9.1657C13.4779 9.1657 9.17205 13.4726 9.17205 18.812C9.17205 24.1515 13.4779 28.4584 18.8162 28.4584C24.1545 28.4584 28.4604 24.1515 28.4604 18.812C28.4604 13.4726 24.1545 9.1657 18.8162 9.1657ZM18.8162 25.0834C15.3665 25.0834 12.5463 22.271 12.5463 18.812C12.5463 15.3531 15.3581 12.5407 18.8162 12.5407C22.2744 12.5407 25.0862 15.3531 25.0862 18.812C25.0862 22.271 22.266 25.0834 18.8162 25.0834ZM31.1044 8.77112C31.1044 10.022 30.0972 11.0211 28.8549 11.0211C27.6043 11.0211 26.6055 10.0136 26.6055 8.77112C26.6055 7.5286 27.6127 6.52114 28.8549 6.52114C30.0972 6.52114 31.1044 7.5286 31.1044 8.77112ZM37.4919 11.0547C37.3492 8.04072 36.6609 5.37097 34.4534 3.17137C32.2543 0.97177 29.5852 0.283346 26.5719 0.132228C23.4663 -0.044076 14.1578 -0.044076 11.0522 0.132228C8.04732 0.27495 5.37817 0.963375 3.17066 3.16298C0.96316 5.36258 0.283282 8.03232 0.132198 11.0463C-0.0440661 14.1526 -0.0440661 23.4631 0.132198 26.5694C0.274889 29.5834 0.96316 32.2531 3.17066 34.4527C5.37817 36.6523 8.03892 37.3407 11.0522 37.4919C14.1578 37.6682 23.4663 37.6682 26.5719 37.4919C29.5852 37.3491 32.2543 36.6607 34.4534 34.4527C36.6525 32.2531 37.3408 29.5834 37.4919 26.5694C37.6682 23.4631 37.6682 14.161 37.4919 11.0547ZM33.4798 29.9024C32.8251 31.5479 31.5577 32.8156 29.9041 33.4788C27.428 34.4611 21.5525 34.2344 18.8162 34.2344C16.0799 34.2344 10.1961 34.4527 7.72836 33.4788C6.08323 32.824 4.8158 31.5563 4.15271 29.9024C3.17066 27.4257 3.39729 21.549 3.39729 18.812C3.39729 16.0751 3.17906 10.1899 4.15271 7.72169C4.80741 6.07619 6.07483 4.80848 7.72836 4.14524C10.2045 3.16298 16.0799 3.38965 18.8162 3.38965C21.5525 3.38965 27.4364 3.17137 29.9041 4.14524C31.5493 4.80008 32.8167 6.06779 33.4798 7.72169C34.4618 10.1983 34.2352 16.0751 34.2352 18.812C34.2352 21.549 34.4618 27.4341 33.4798 29.9024Z" fill="url(#paint0_angular_34_387)"/>
<defs>
<radialGradient id="paint0_angular_34_387" cx="0" cy="0" r="1" gradientUnits="userSpaceOnUse" gradientTransform="translate(14.4226 18.812) rotate(127.476) scale(23.7045)">
<stop offset="0.065" stop-color="#FF3D00"/>
<stop offset="0.24" stop-color="#FF7474"/>
<stop offset="0.33" stop-color="#4B53FF"/>
<stop offset="0.445" stop-color="#8E009A"/>
<stop offset="0.583323" stop-color="#FE0089"/>
<stop offset="0.73" stop-color="#FC0000"/>
<stop offset="0.832823" stop-color="#FF3D00"/>
<stop offset="0.96" stop-color="#FFE600"/>
</radialGradient>
</defs>
</svg>
