<svg width="54" height="38" viewBox="0 0 54 38" fill="none" xmlns="http://www.w3.org/2000/svg">
<path d="M52.88 5.88856C52.261 3.56645 50.4435 1.74403 48.1348 1.12676C43.9496 0 27.1697 0 27.1697 0C27.1697 0 10.3897 0 6.20449 1.12676C3.89577 1.74403 2.07827 3.56645 1.45933 5.88856C0.339355 10.0919 0.339355 18.8512 0.339355 18.8512C0.339355 18.8512 0.339355 27.6106 1.45933 31.8139C2.07827 34.136 3.89577 35.8801 6.20449 36.4973C10.3897 37.6241 27.1697 37.6241 27.1697 37.6241C27.1697 37.6241 43.9496 37.6241 48.1348 36.4973C50.4435 35.8801 52.261 34.1262 52.88 31.8139C53.9999 27.6106 53.9999 18.8512 53.9999 18.8512C53.9999 18.8512 53.9999 10.0919 52.88 5.88856ZM21.6877 26.8072V10.8953L35.707 18.8512L21.6877 26.8072Z" fill="#FA0000"/>
</svg>
